HIERARCHY
ROOT Model
{
	OFFSET 0 0 0
	CHANNELS 6 Xposition Yposition Zposition Zrotation Xrotation Yrotation
	JOINT Model1
	{
		OFFSET 0 -2.25479 2.99384
		CHANNELS 3 Zrotation Xrotation Yrotation
		JOINT Model2
		{
			OFFSET 12.111 0 0
			CHANNELS 3 Zrotation Xrotation Yrotation
			JOINT Model3
			{
				OFFSET 11.5502 0 0
				CHANNELS 3 Zrotation Xrotation Yrotation
				JOINT Model4
				{
					OFFSET 11.781 0 0
					CHANNELS 3 Zrotation Xrotation Yrotation
					JOINT Model5
					{
						OFFSET 20.0601 0 0
						CHANNELS 3 Zrotation Xrotation Yrotation
						JOINT Model6
						{
							OFFSET 11.1962 0 0
							CHANNELS 3 Zrotation Xrotation Yrotation
							End Site
							{
								OFFSET 0 0 0
							}
						}
					}
					JOINT Model7
					{
						OFFSET 10.8223 0.417534 3.51114
						CHANNELS 3 Zrotation Xrotation Yrotation
						JOINT Model8
						{
							OFFSET -6.07944 0 0
							CHANNELS 3 Zrotation Xrotation Yrotation
							JOINT Model9
							{
								OFFSET -0.277405 10.39 -0.051239
								CHANNELS 3 Zrotation Xrotation Yrotation
								JOINT Model10
								{
									OFFSET -3.43909 -0.282043 1.86679
									CHANNELS 3 Zrotation Xrotation Yrotation
									JOINT Model11
									{
										OFFSET 13.0269 0 0
										CHANNELS 3 Zrotation Xrotation Yrotation
										JOINT Model12
										{
											OFFSET 10.8866 0 0
											CHANNELS 3 Zrotation Xrotation Yrotation
											JOINT Model13
											{
												OFFSET 16.7317 0 0
												CHANNELS 3 Zrotation Xrotation Yrotation
												JOINT Model14
												{
													OFFSET 11.8292 0 0
													CHANNELS 3 Zrotation Xrotation Yrotation
													JOINT Model15
													{
														OFFSET 4.82751 -3.73566 -0.836517
														CHANNELS 3 Zrotation Xrotation Yrotation
														JOINT Model16
														{
															OFFSET 3.75311 -0.0582886 -0.0186462
															CHANNELS 3 Zrotation Xrotation Yrotation
															JOINT Model17
															{
																OFFSET 2.88689 0.0192337 0.014801
																CHANNELS 3 Zrotation Xrotation Yrotation
																End Site
																{
																	OFFSET 0 0 0
																}
															}
														}
													}
													JOINT Model18
													{
														OFFSET 9.72197 -3.06458 0.23877
														CHANNELS 3 Zrotation Xrotation Yrotation
														JOINT Model19
														{
															OFFSET 4.61131 0 0
															CHANNELS 3 Zrotation Xrotation Yrotation
															JOINT Model20
															{
																OFFSET 2.8969 -7.62939e-006 0
																CHANNELS 3 Zrotation Xrotation Yrotation
																End Site
																{
																	OFFSET 0 0 0
																}
															}
														}
													}
													JOINT Model21
													{
														OFFSET 9.54431 -0.745064 0.588928
														CHANNELS 3 Zrotation Xrotation Yrotation
														JOINT Model22
														{
															OFFSET 5.33978 0 0
															CHANNELS 3 Zrotation Xrotation Yrotation
															JOINT Model23
															{
																OFFSET 3.03619 7.62939e-006 0
																CHANNELS 3 Zrotation Xrotation Yrotation
																End Site
																{
																	OFFSET 0 0 0
																}
															}
														}
													}
													JOINT Model24
													{
														OFFSET 9.47758 1.51286 0.485107
														CHANNELS 3 Zrotation Xrotation Yrotation
														JOINT Model25
														{
															OFFSET 4.96136 7.62939e-006 0
															CHANNELS 3 Zrotation Xrotation Yrotation
															JOINT Model26
															{
																OFFSET 2.51965 0 0
																CHANNELS 3 Zrotation Xrotation Yrotation
																End Site
																{
																	OFFSET 0 0 0
																}
															}
														}
													}
													JOINT Model27
													{
														OFFSET 9.34247 3.34117 -0.239288
														CHANNELS 3 Zrotation Xrotation Yrotation
														JOINT Model28
														{
															OFFSET 3.28259 2.28882e-005 0
															CHANNELS 3 Zrotation Xrotation Yrotation
															JOINT Model29
															{
																OFFSET 2.1292 0 0
																CHANNELS 3 Zrotation Xrotation Yrotation
																End Site
																{
																	OFFSET 0 0 0
																}
															}
														}
													}
												}
											}
										}
									}
								}
							}
						}
					}
					JOINT Model30
					{
						OFFSET 10.8223 0.4179 -3.51108
						CHANNELS 3 Zrotation Xrotation Yrotation
						JOINT Model31
						{
							OFFSET 6.07944 0 0
							CHANNELS 3 Zrotation Xrotation Yrotation
							JOINT Model32
							{
								OFFSET 0.277405 -10.39 0.051239
								CHANNELS 3 Zrotation Xrotation Yrotation
								JOINT Model33
								{
									OFFSET 3.43909 0.282043 -1.86679
									CHANNELS 3 Zrotation Xrotation Yrotation
									JOINT Model34
									{
										OFFSET -13.0269 0 0
										CHANNELS 3 Zrotation Xrotation Yrotation
										JOINT Model35
										{
											OFFSET -10.8866 0 0
											CHANNELS 3 Zrotation Xrotation Yrotation
											JOINT Model36
											{
												OFFSET -16.7317 0 0
												CHANNELS 3 Zrotation Xrotation Yrotation
												JOINT Model37
												{
													OFFSET -11.8292 0 0
													CHANNELS 3 Zrotation Xrotation Yrotation
													JOINT Model38
													{
														OFFSET -4.82751 3.73566 0.836517
														CHANNELS 3 Zrotation Xrotation Yrotation
														JOINT Model39
														{
															OFFSET -3.75311 0.0582886 0.0186462
															CHANNELS 3 Zrotation Xrotation Yrotation
															JOINT Model40
															{
																OFFSET -2.88687 -0.0192337 -0.014801
																CHANNELS 3 Zrotation Xrotation Yrotation
																End Site
																{
																	OFFSET 0 0 0
																}
															}
														}
													}
													JOINT Model41
													{
														OFFSET -9.72198 3.06459 -0.23877
														CHANNELS 3 Zrotation Xrotation Yrotation
														JOINT Model42
														{
															OFFSET -4.6113 0 0
															CHANNELS 3 Zrotation Xrotation Yrotation
															JOINT Model43
															{
																OFFSET -2.89691 0 0
																CHANNELS 3 Zrotation Xrotation Yrotation
																End Site
																{
																	OFFSET 0 0 0
																}
															}
														}
													}
													JOINT Model44
													{
														OFFSET -9.54431 0.745064 -0.588928
														CHANNELS 3 Zrotation Xrotation Yrotation
														JOINT Model45
														{
															OFFSET -5.33978 0 0
															CHANNELS 3 Zrotation Xrotation Yrotation
															JOINT Model46
															{
																OFFSET -3.03619 -1.52588e-005 0
																CHANNELS 3 Zrotation Xrotation Yrotation
																End Site
																{
																	OFFSET 0 0 0
																}
															}
														}
													}
													JOINT Model47
													{
														OFFSET -9.4776 -1.51286 -0.485107
														CHANNELS 3 Zrotation Xrotation Yrotation
														JOINT Model48
														{
															OFFSET -4.96136 -1.52588e-005 0
															CHANNELS 3 Zrotation Xrotation Yrotation
															JOINT Model49
															{
																OFFSET -2.51965 0 0
																CHANNELS 3 Zrotation Xrotation Yrotation
																End Site
																{
																	OFFSET 0 0 0
																}
															}
														}
													}
													JOINT Model50
													{
														OFFSET -9.34247 -3.34118 0.239288
														CHANNELS 3 Zrotation Xrotation Yrotation
														JOINT Model51
														{
															OFFSET -3.28259 -2.28882e-005 0
															CHANNELS 3 Zrotation Xrotation Yrotation
															JOINT Model52
															{
																OFFSET -2.12921 0 0
																CHANNELS 3 Zrotation Xrotation Yrotation
																End Site
																{
																	OFFSET 0 0 0
																}
															}
														}
													}
												}
											}
										}
									}
								}
							}
						}
					}
				}
			}
		}
	}
	JOINT Model53
	{
		OFFSET 4.38025 -2.14632 -1.11517
		CHANNELS 3 Zrotation Xrotation Yrotation
		JOINT Model54
		{
			OFFSET 0 0 4.94998
			CHANNELS 3 Zrotation Xrotation Yrotation
			JOINT Model55
			{
				OFFSET 18.5642 0 0
				CHANNELS 3 Zrotation Xrotation Yrotation
				JOINT Model56
				{
					OFFSET 21.2884 0 0
					CHANNELS 3 Zrotation Xrotation Yrotation
					JOINT Model57
					{
						OFFSET 30.261 0 0
						CHANNELS 3 Zrotation Xrotation Yrotation
						JOINT Model58
						{
							OFFSET 11.7259 0 0
							CHANNELS 3 Zrotation Xrotation Yrotation
							JOINT Model59
							{
								OFFSET 10.682 0 0
								CHANNELS 3 Zrotation Xrotation Yrotation
								End Site
								{
									OFFSET 0 0 0
								}
							}
						}
					}
				}
			}
		}
	}
	JOINT Model60
	{
		OFFSET -4.38025 -2.14632 -1.11517
		CHANNELS 3 Zrotation Xrotation Yrotation
		JOINT Model61
		{
			OFFSET 0 0 -4.94998
			CHANNELS 3 Zrotation Xrotation Yrotation
			JOINT Model62
			{
				OFFSET -18.5642 0 0
				CHANNELS 3 Zrotation Xrotation Yrotation
				JOINT Model63
				{
					OFFSET -21.2884 0 0
					CHANNELS 3 Zrotation Xrotation Yrotation
					JOINT Model64
					{
						OFFSET -30.261 0 0
						CHANNELS 3 Zrotation Xrotation Yrotation
						JOINT Model65
						{
							OFFSET -11.7259 0 0
							CHANNELS 3 Zrotation Xrotation Yrotation
							JOINT Model66
							{
								OFFSET -10.682 0 0
								CHANNELS 3 Zrotation Xrotation Yrotation
								End Site
								{
									OFFSET 0 0 0
								}
							}
						}
					}
				}
			}
		}
	}
}
MOTION
Frames: 4
Frame Time: 0.033333
-662.862 173.762 -733.631 97.7092 -52.456 97.5773 -180 4.29621e-031 -90 0.0322474 0.0379296 -0.346527 0.0647168 0.0752263 -0.693075 0.0647168 0.0756635 -0.693075 5.36302 1.2838 0.668493 13.034 1.46407 2.06595 120.092 75.5343 58.4939 13.5676 1.84648 -1.59866 -167.277 84.4999 48.8109 159.066 -7.39438 -29.8958 3.13548e-006 15.2095 3.11222e-005 -0.0214209 -1.84683 -0.499996 -9.4676e-008 -2.70625 -3.09631e-007 -1.14621 -0.0240072 2.39967 -72.0648 39.0385 39.3397 33.3638 2.10362 14.835 0.588947 0.308273 6.35287 -99.6409 81.413 100.35 -0.018141 2.7792e-005 -0.117316 -0.124139 0.00241114 -0.799297 -79.8382 79.5773 80.5374 -0.000225813 -0.000220905 2.19748e-005 -0.000956276 0.000122919 -2.76182e-005 -66.7416 80.4058 67.2171 -0.000437177 1.59595e-005 -2.75392e-005 -0.000136664 -0.000109272 -5.49374e-005 -6.42159 81.2158 8.01779 -0.000218635 1.68963e-005 0.000211918 0.000901491 -0.000184818 -0.000218867 -59.9282 75.5373 58.5147 11.1911 7.66294 0.0288508 -167.277 84.4999 48.8109 161.602 -17.8474 -22.9202 7.10678e-006 -0.293298 2.91045e-005 -1.67749 6.45776 -0.0641478 -3.75498e-006 9.71178 1.49236e-006 2.3338 -0.121602 -5.96464 -72.0648 39.0385 39.3397 33.3638 2.10361 14.835 0.588946 0.308273 6.35287 -99.6409 81.413 100.35 -0.0181409 3.01026e-005 -0.117315 -0.124139 0.00241117 -0.799296 -79.8382 79.5773 80.5374 -0.000260597 -0.000218528 2.3803e-005 -0.00095616 0.000123048 -2.70058e-005 -66.7416 80.4058 67.2171 -0.000437073 1.49083e-005 -2.70884e-005 -0.000136524 -0.000109247 -5.43269e-005 -6.42159 81.2158 8.01779 -0.000218491 1.95511e-005 0.000212499 0.000901685 -0.000191283 -0.000218293 0.000811311 0.56661 89.91 -13.9951 -4.87264 -12.6204 3.55033e-007 0.956087 -1.03645e-009 36.1515 0.217195 -1.56822 3.77127e-009 0.257738 3.02344e-008 -67.8359 -6.54203 2.62234 -35.4947 5.4265e-007 -5.22946e-007 -180 -0.566579 -90.09 -10.5403 -5.07511 -7.95338 -6.8993e-007 -1.95895 -2.13824e-008 35.551 -2.75697 -1.31171 2.8222e-007 -4.20379 -2.68584e-007 -68.8939 -6.84556 2.669 -35.4947 7.36789e-007 6.19244e-007 
-662.83 173.755 -733.638 97.8953 -52.4679 97.7158 -180 4.29621e-031 -90 0.0804049 0.0503151 -0.348406 0.161108 0.0997031 -0.696883 0.161107 0.10014 -0.696885 5.42756 1.22665 1.08649 12.7403 1.45043 1.48659 120.092 75.5343 58.4939 13.7728 1.78277 -1.64703 -167.277 84.4999 48.8109 158.961 -7.48381 -29.9208 3.23582e-006 15.0311 3.10961e-005 -0.0115274 -1.77966 -0.276697 -9.41304e-008 -2.60539 -3.09606e-007 -1.29929 -0.0281407 2.48137 -72.0648 39.0385 39.3397 33.3638 2.10362 14.835 0.588947 0.308273 6.35287 -99.6409 81.413 100.35 -0.018141 2.7792e-005 -0.117316 -0.124139 0.00241114 -0.799297 -79.8382 79.5773 80.5374 -0.000225813 -0.000220905 2.19748e-005 -0.000956276 0.000122919 -2.76182e-005 -66.7416 80.4058 67.2171 -0.000437177 1.59595e-005 -2.75392e-005 -0.000136664 -0.000109272 -5.49374e-005 -6.42159 81.2158 8.01779 -0.000218635 1.68963e-005 0.000211918 0.000901491 -0.000184818 -0.000218867 -59.9282 75.5373 58.5147 11.1081 7.43001 -3.59918e-005 -167.277 84.4999 48.8109 161.437 -17.8147 -23.0129 7.10664e-006 -0.29301 2.91045e-005 -1.67027 6.64728 -0.0667979 -3.7625e-006 9.99622 1.49365e-006 2.42113 -0.130804 -6.18408 -72.0648 39.0385 39.3397 33.3638 2.10361 14.835 0.588946 0.308273 6.35287 -99.6409 81.413 100.35 -0.0181409 3.01026e-005 -0.117315 -0.124139 0.00241117 -0.799296 -79.8382 79.5773 80.5374 -0.000260597 -0.000218528 2.3803e-005 -0.00095616 0.000123048 -2.70058e-005 -66.7416 80.4058 67.2171 -0.000437073 1.49083e-005 -2.70884e-005 -0.000136524 -0.000109247 -5.43269e-005 -6.42159 81.2158 8.01779 -0.000218491 1.95511e-005 0.000212499 0.000901685 -0.000191283 -0.000218293 0.000811311 0.56661 89.91 -13.888 -4.92293 -12.5942 3.55031e-007 0.884221 -1.03643e-009 36.142 0.251835 -1.68431 3.74382e-009 0.309755 3.02345e-008 -67.8314 -6.57022 2.63806 -35.4947 5.40226e-007 -5.08759e-007 -180 -0.566579 -90.09 -10.4256 -5.10363 -7.9147 -6.89951e-007 -2.01468 -2.13831e-008 35.5065 -2.74702 -1.55009 2.82289e-007 -4.18923 -2.68579e-007 -68.8462 -6.97146 2.74091 -35.4947 7.39492e-007 6.1413e-007 
-662.831 173.75 -733.657 97.8836 -52.5032 97.719 -180 4.29621e-031 -90 0.0955001 0.0537296 -0.349671 0.19132 0.106438 -0.699432 0.19132 0.106875 -0.699434 5.61883 1.22377 1.21426 12.3616 1.45439 1.2534 120.092 75.5343 58.4939 13.9137 1.62823 -1.70048 -167.277 84.4999 48.8109 158.864 -7.49462 -29.8985 3.27424e-006 14.9627 3.10861e-005 -0.00935266 -1.62842 -0.23969 -9.29034e-008 -2.37852 -3.09553e-007 -1.40249 -0.0313791 2.56328 -72.0648 39.0385 39.3397 33.3638 2.10362 14.835 0.588947 0.308273 6.35287 -99.6409 81.413 100.35 -0.018141 2.7792e-005 -0.117316 -0.124139 0.00241114 -0.799297 -79.8382 79.5773 80.5374 -0.000225813 -0.000220905 2.19748e-005 -0.000956276 0.000122919 -2.76182e-005 -66.7416 80.4058 67.2171 -0.000437177 1.59595e-005 -2.75392e-005 -0.000136664 -0.000109272 -5.49374e-005 -6.42159 81.2158 8.01779 -0.000218635 1.68963e-005 0.000211918 0.000901491 -0.000184818 -0.000218867 -59.9282 75.5373 58.5147 11.2567 7.69447 0.0201694 -167.277 84.4999 48.8109 161.858 -17.9181 -22.9117 7.10779e-006 -0.295279 2.91045e-005 -1.6712 6.62447 -0.0664539 -3.76159e-006 9.962 1.49349e-006 2.13479 -0.117882 -6.32061 -72.0648 39.0385 39.3397 33.3638 2.10361 14.835 0.588946 0.308273 6.35287 -99.6409 81.413 100.35 -0.0181409 3.01026e-005 -0.117315 -0.124139 0.00241117 -0.799296 -79.8382 79.5773 80.5374 -0.000260597 -0.000218528 2.3803e-005 -0.00095616 0.000123048 -2.70058e-005 -66.7416 80.4058 67.2171 -0.000437073 1.49083e-005 -2.70884e-005 -0.000136524 -0.000109247 -5.43269e-005 -6.42159 81.2158 8.01779 -0.000218491 1.95511e-005 0.000212499 0.000901685 -0.000191283 -0.000218293 0.000811311 0.56661 89.91 -13.9598 -4.9489 -12.6628 3.55031e-007 0.876036 -1.03643e-009 36.1279 0.327375 -1.70135 3.68399e-009 0.423148 3.02349e-008 -67.79 -6.56351 2.63892 -35.4947 5.33776e-007 -4.90956e-007 -180 -0.566579 -90.09 -10.4673 -5.1209 -7.94715 -6.89954e-007 -2.02305 -2.13832e-008 35.5163 -2.72132 -1.53729 2.8247e-007 -4.15067 -2.68566e-007 -68.8297 -6.96428 2.73894 -35.4947 7.67024e-007 6.18595e-007 
-662.819 173.753 -733.672 97.8245 -52.5119 97.6666 -180 4.29621e-031 -90 0.0991939 0.0539055 -0.358346 0.198716 0.106752 -0.716784 0.198716 0.10719 -0.716786 5.86545 1.27741 1.15306 11.9336 1.49478 1.38812 120.092 75.5343 58.4939 14.1219 1.58712 -1.7446 -167.277 84.4999 48.8109 158.957 -7.5706 -29.7689 3.32144e-006 14.8786 3.1074e-005 -0.0143324 -1.47103 -0.395003 -9.16273e-008 -2.14249 -3.09502e-007 -1.09231 -0.0267311 2.80363 -72.0648 39.0385 39.3397 33.3638 2.10362 14.835 0.588947 0.308273 6.35287 -99.6409 81.413 100.35 -0.018141 2.7792e-005 -0.117316 -0.124139 0.00241114 -0.799297 -79.8382 79.5773 80.5374 -0.000225813 -0.000220905 2.19748e-005 -0.000956276 0.000122919 -2.76182e-005 -66.7416 80.4058 67.2171 -0.000437177 1.59595e-005 -2.75392e-005 -0.000136664 -0.000109272 -5.49374e-005 -6.42159 81.2158 8.01779 -0.000218635 1.68963e-005 0.000211918 0.000901491 -0.000184818 -0.000218867 -59.9282 75.5373 58.5147 11.3522 7.86795 0.0335277 -167.277 84.4999 48.8109 162.125 -17.9831 -22.8462 7.10851e-006 -0.296709 2.91045e-005 -1.67629 6.49202 -0.0645858 -3.75634e-006 9.7632 1.49259e-006 1.87269 -0.104716 -6.40054 -72.0648 39.0385 39.3397 33.3638 2.10361 14.835 0.588946 0.308273 6.35287 -99.6409 81.413 100.35 -0.0181409 3.01026e-005 -0.117315 -0.124139 0.00241117 -0.799296 -79.8382 79.5773 80.5374 -0.000260597 -0.000218528 2.3803e-005 -0.00095616 0.000123048 -2.70058e-005 -66.7416 80.4058 67.2171 -0.000437073 1.49083e-005 -2.70884e-005 -0.000136524 -0.000109247 -5.43269e-005 -6.42159 81.2158 8.01779 -0.000218491 1.95511e-005 0.000212499 0.000901685 -0.000191283 -0.000218293 0.000811311 0.56661 89.91 -13.9977 -4.88277 -12.5978 3.55032e-007 0.925563 -1.03645e-009 36.1048 0.315219 -1.75574 3.69358e-009 0.404962 3.02348e-008 -67.765 -6.59893 2.66081 -35.4947 5.23619e-007 -4.69822e-007 -180 -0.566579 -90.09 -10.5248 -5.16093 -8.1038 -6.89938e-007 -1.98029 -2.13826e-008 35.5348 -2.65519 -1.28795 2.82938e-007 -4.05101 -2.68533e-007 -68.854 -6.83146 2.66594 -35.4947 8.17568e-007 6.31938e-007 
